<mxfile host="app.diagrams.net" modified="2020-08-06T16:59:08.361Z" agent="5.0 (Macintosh; Intel Mac OS X 10_15_6) AppleWebKit/537.36 (KHTML, like Gecko) Chrome/84.0.4147.105 Safari/537.36" etag="Jlw62mAdotNUs87fP4Vh" version="13.6.0" type="github">
  <diagram id="V-Boo49NW7NVAkrlNs2W" name="Page-1">
    <mxGraphModel dx="546" dy="423" grid="1" gridSize="10" guides="1" tooltips="1" connect="1" arrows="1" fold="1" page="1" pageScale="1" pageWidth="850" pageHeight="1100" math="0" shadow="0">
      <root>
        <mxCell id="0" />
        <mxCell id="1" parent="0" />
        <mxCell id="dKE-YW6zsqlkNfaTGxma-2" value="" style="rounded=1;whiteSpace=wrap;html=1;" vertex="1" parent="1">
          <mxGeometry x="160" y="20" width="230" height="410" as="geometry" />
        </mxCell>
        <mxCell id="dKE-YW6zsqlkNfaTGxma-4" value="&lt;h1&gt;Welcome&lt;/h1&gt;&lt;div style=&quot;font-size: 14px&quot;&gt;Here is your Meditative Quote.&amp;nbsp;&lt;/div&gt;" style="text;html=1;strokeColor=none;fillColor=none;spacing=5;spacingTop=-20;whiteSpace=wrap;overflow=hidden;rounded=0;fontStyle=0;align=center;" vertex="1" parent="1">
          <mxGeometry x="180" y="40" width="190" height="120" as="geometry" />
        </mxCell>
        <mxCell id="dKE-YW6zsqlkNfaTGxma-6" value="How long will you be practicing?" style="text;html=1;strokeColor=none;fillColor=none;align=center;verticalAlign=middle;whiteSpace=wrap;rounded=0;" vertex="1" parent="1">
          <mxGeometry x="180" y="210" width="200" height="20" as="geometry" />
        </mxCell>
        <mxCell id="dKE-YW6zsqlkNfaTGxma-8" value="" style="ellipse;whiteSpace=wrap;html=1;aspect=fixed;" vertex="1" parent="1">
          <mxGeometry x="200" y="260" width="50" height="50" as="geometry" />
        </mxCell>
        <mxCell id="dKE-YW6zsqlkNfaTGxma-9" value="" style="ellipse;whiteSpace=wrap;html=1;aspect=fixed;" vertex="1" parent="1">
          <mxGeometry x="300" y="260" width="50" height="50" as="geometry" />
        </mxCell>
        <mxCell id="dKE-YW6zsqlkNfaTGxma-10" value="5 Min" style="text;html=1;strokeColor=none;fillColor=none;align=center;verticalAlign=middle;whiteSpace=wrap;rounded=0;" vertex="1" parent="1">
          <mxGeometry x="205" y="265" width="40" height="40" as="geometry" />
        </mxCell>
        <mxCell id="dKE-YW6zsqlkNfaTGxma-12" value="10 min" style="text;html=1;strokeColor=none;fillColor=none;align=center;verticalAlign=middle;whiteSpace=wrap;rounded=0;" vertex="1" parent="1">
          <mxGeometry x="305" y="270" width="40" height="30" as="geometry" />
        </mxCell>
      </root>
    </mxGraphModel>
  </diagram>
</mxfile>
